<svg width="87" height="101" viewBox="0 0 87 101" fill="none" xmlns="http://www.w3.org/2000/svg">
<path fill-rule="evenodd" clip-rule="evenodd" d="M79.1573 0.464197L8.63341 0.106468C2.9172 0.0774732 0.796916 2.17635 0.767908 7.89523L0.417872 76.9024C0.41459 77.5495 0.437638 78.1508 0.491982 78.708C0.502303 78.8122 0.511891 78.916 0.521465 79.0197C0.626743 80.1599 0.730352 81.282 1.78813 82.5498C1.9009 82.6853 3.08171 83.5734 3.08171 83.5734C3.19347 83.6289 3.299 83.6819 3.40092 83.733L3.40569 83.7354L3.40747 83.7363C3.88267 83.9747 4.28065 84.1744 4.86944 84.4148L39.5225 99.1403C41.3211 99.976 42.0734 100.302 43.3829 100.283L43.3829 100.283L43.388 100.283L43.3932 100.283L43.3932 100.283C44.7024 100.315 45.4579 99.9969 47.2651 99.1796L82.0656 84.8064C82.6562 84.5722 83.0558 84.3768 83.5326 84.1436C83.6377 84.0922 83.7465 84.039 83.862 83.9832C83.862 83.9832 85.0517 83.1071 85.1657 82.9728C86.2363 81.7158 86.3512 80.5947 86.4681 79.4556L86.4842 79.2999C86.4896 79.2481 86.4951 79.1962 86.5007 79.1443C86.5607 78.5877 86.59 77.9866 86.5933 77.3395L86.9434 8.33235C86.9724 2.61348 84.8733 0.493192 79.1573 0.464197ZM74.0814 69.8176L74.0646 69.9768L74.0479 70.1516L74.0152 70.3106L73.9668 70.4695L73.9352 70.6126L73.8864 70.7716L73.8221 70.9146L73.7578 71.0417L73.6944 71.1845L73.6142 71.3114L73.534 71.4385L73.4387 71.5653L73.3583 71.6922L73.2633 71.803L73.1513 71.914L73.0561 72.009L72.9285 72.1199L72.8174 72.2148L72.6896 72.3097L72.5628 72.3875L72.4359 72.4824L72.2922 72.5612L72.1495 72.6242L72.0069 72.703L71.8473 72.766L71.6888 72.8289L71.5303 72.8757L71.3719 72.9228L71.2284 72.9697L71.07 73.0008L70.9275 73.0319L70.7851 73.063L70.6257 73.0941L70.4672 73.1091L70.3249 73.1244L70.1656 73.1395L69.9915 73.1546L69.8331 73.1696L69.6749 73.1688L69.5007 73.1679L69.3257 73.1671L69.1675 73.1663L69.0092 73.1496L68.8352 73.1488L68.6769 73.132L68.5179 73.1152L68.3438 73.0983L68.1858 73.0658L68.0277 73.049L67.8686 73.0164L67.7104 72.9838L67.5523 72.951L67.3943 72.9185L67.2355 72.8701L67.0932 72.8374L66.9353 72.7888L66.7772 72.7403L66.6344 72.6758L66.4764 72.6272L66.3343 72.5789L66.1762 72.5144L66.0335 72.4499L65.8914 72.3855L65.7494 72.3063L65.6066 72.2418L65.4646 72.1614L65.3386 72.0814L65.1958 72.0009L65.0698 71.9207L64.9429 71.8406L64.8169 71.7444L64.691 71.6482L64.5642 71.5521L64.4381 71.4559L64.3272 71.3598L64.2014 71.2479L64.2976 71.121L64.4086 71.0101L64.5047 70.8831L64.616 70.7564L64.7121 70.6455L64.8072 70.5187L64.9193 70.3918L65.0143 70.281L65.1265 70.1542L65.2217 70.0432L65.3336 69.9165L65.4289 69.7895L65.525 69.6787L65.6361 69.5519L65.7322 69.4249L65.8432 69.3142L65.9394 69.1873L66.0653 69.2835L66.2072 69.3797L66.334 69.4759L66.476 69.5722L66.6028 69.6523L66.7448 69.7484L66.8706 69.8288L67.0137 69.893L67.1395 69.9734L67.2816 70.0379L67.4246 70.1022L67.5665 70.1666L67.7088 70.2151L67.8516 70.2794L68.0095 70.3279L68.1676 70.3765L68.3096 70.425L68.4687 70.4578L68.6267 70.4903L68.7848 70.5229L68.9589 70.5398L69.1178 70.5724L69.2761 70.5732L69.4501 70.5899L69.6084 70.5907L69.7984 70.5916L69.9726 70.5767L70.1321 70.5457L70.2744 70.5145L70.417 70.4834L70.5445 70.4363L70.6555 70.3733L70.7833 70.2785L70.8783 70.1674L70.9427 70.0403L70.9913 69.8974L71.0077 69.7382L71.0079 69.7065L70.9933 69.5153L70.9303 69.3558L70.8512 69.244L70.7412 69.148L70.6142 69.0518L70.4881 68.9876L70.3463 68.9231L70.1873 68.8586L69.9977 68.7783L69.8873 68.7458L69.7612 68.7133L69.6182 68.6647L69.476 68.6322L69.318 68.5836L69.1589 68.551L68.9852 68.5024L68.827 68.4698L68.653 68.4211L68.495 68.3886L68.336 68.34L68.1781 68.3072L68.02 68.2587L67.877 68.2104L67.7191 68.1776L67.5768 68.1291L67.4348 68.0806L67.2918 68.0322L67.1179 67.9675L66.9601 67.903L66.802 67.8386L66.6433 67.7741L66.5015 67.6938L66.3435 67.6135L66.2166 67.5333L66.0746 67.453L65.9487 67.3569L65.8218 67.2767L65.7118 67.1804L65.6011 67.0685L65.491 66.9565L65.3961 66.8445L65.3022 66.7327L65.223 66.621L65.145 66.4931L65.0662 66.3496L65.0031 66.2388L64.9559 66.1111L64.91 65.9676L64.8629 65.8401L64.8317 65.6806L64.8007 65.5372L64.7855 65.378L64.7705 65.2187L64.7554 65.0437L64.7563 64.8685L64.7564 64.8367L64.7573 64.6775L64.774 64.5185L64.7906 64.3753L64.8074 64.2161L64.8399 64.0732L64.8725 63.93L64.921 63.7868L64.9535 63.6439L65.0169 63.5009L65.0814 63.358L65.1457 63.2152L65.2252 63.0721L65.3053 62.9294L65.4006 62.8024L65.497 62.6756L65.608 62.5489L65.7199 62.4381L65.8312 62.3112L65.959 62.2004L66.0699 62.1214L66.1977 62.0265L66.3247 61.9316L66.4514 61.8527L66.5951 61.7739L66.7378 61.7109L66.8804 61.6321L67.024 61.5693L67.1824 61.5221L67.3409 61.4594L67.4845 61.4123L67.611 61.381L67.7538 61.35L67.897 61.3189L68.0554 61.2879L68.1979 61.2567L68.3562 61.2417L68.5155 61.2265L68.6738 61.2114L68.8321 61.1963L68.9903 61.1972L69.1653 61.198L69.3397 61.1989L69.5137 61.1998L69.6878 61.2165L69.8618 61.2334L70.02 61.2342L70.195 61.251L70.353 61.2836L70.5271 61.3005L70.6853 61.3331L70.8285 61.3656L70.9865 61.3981L71.1445 61.4309L71.2867 61.4634L71.4456 61.512L71.5877 61.5605L71.73 61.5931L71.8887 61.6575L72.0309 61.706L72.1728 61.7703L72.3148 61.8347L72.4736 61.8993L72.6156 61.9795L72.7417 62.0439L72.8845 62.1242L73.0265 62.2044L73.1525 62.2848L73.2951 62.381L73.4213 62.461L73.5481 62.5574L73.6741 62.6535L73.7998 62.7495L73.7047 62.8765L73.6245 63.0034L73.5293 63.1302L73.4331 63.2572L73.3379 63.3999L73.2575 63.5268L73.1614 63.6537L73.0661 63.7806L72.9861 63.9075L72.8906 64.0345L72.7947 64.1613L72.7143 64.2882L72.6191 64.431L72.5228 64.5578L72.4277 64.6846L72.3475 64.8115L72.2522 64.9383L72.1254 64.8423L71.9836 64.7619L71.8574 64.6817L71.7306 64.5855L71.5887 64.5213L71.4616 64.4409L71.3197 64.3764L71.1936 64.3122L71.0507 64.2478L70.9246 64.1836L70.7826 64.1351L70.6557 64.0707L70.4816 64.0222L70.3236 63.9735L70.1656 63.9251L70.0066 63.8923L69.8485 63.8598L69.6905 63.827L69.5324 63.8102L69.3732 63.7936L69.2311 63.7769L69.0727 63.7761L68.8827 63.7751L68.7084 63.806L68.549 63.8372L68.4066 63.8683L68.2799 63.9313L68.1681 63.9943L68.025 64.1211L67.9288 64.2639L67.8656 64.4069L67.8486 64.5659L67.8484 64.5978L67.8635 64.8047L67.9411 64.9802L68.0044 65.076L68.1142 65.1881L68.2571 65.2684L68.3831 65.3485L68.541 65.4131L68.7157 65.4777L68.9056 65.5422L69.0318 65.5747L69.158 65.6231L69.3011 65.6556L69.4431 65.704L69.6011 65.7368L69.7761 65.7854L69.95 65.8339L70.1239 65.8827L70.2978 65.9154L70.4557 65.964L70.6297 66.0126L70.7887 66.0452L70.9469 66.0938L71.1048 66.1423L71.2468 66.1908L71.4058 66.2394L71.548 66.2878L71.6899 66.3363L71.8647 66.3999L72.0225 66.4804L72.1803 66.5448L72.3383 66.6251L72.4812 66.7056L72.6232 66.7858L72.749 66.866L72.8758 66.9622L73.002 67.0423L73.1278 67.1545L73.2546 67.2665L73.3643 67.3945L73.4751 67.5064L73.5691 67.6343L73.6639 67.7779L73.7419 67.9056L73.8209 68.0495L73.8838 68.1771L73.9308 68.3204L73.977 68.4639L74.008 68.6074L74.039 68.7668L74.07 68.9262L74.0851 69.0854L74.1002 69.2605L74.0993 69.4356L74.0992 69.4674L74.0983 69.6426L74.0814 69.8176ZM62.9521 72.9439L62.793 72.9431L62.6348 72.9423L62.4766 72.9415L62.3184 72.9407L62.1592 72.9398L62.0008 72.939L61.8428 72.9382L61.6844 72.9374L61.5094 72.9365L61.3512 72.9357L61.193 72.9349L61.0348 72.9341L60.8754 72.9333L60.7173 72.9325L60.559 72.9317L60.4008 72.9309L60.2415 72.9301L60.0833 72.9293L59.9251 72.9285L59.7669 72.9277L59.6086 72.9269L59.4495 72.9261L59.2913 72.9253L59.1331 72.9245L58.9747 72.9237L58.8155 72.9229L58.6573 72.9221L58.4991 72.9213L58.3249 72.9204L58.1659 72.9196L58.0075 72.9188L57.8493 72.918L57.6911 72.9172L57.532 72.9164L57.3736 72.9156L57.2155 72.9148L57.0571 72.914L56.898 72.9132L56.7398 72.9124L56.5816 72.9116L56.4233 72.9107L56.264 72.9099L56.106 72.9091L55.9476 72.9083L55.7894 72.9075L55.6303 72.9067L55.472 72.9059L55.2978 72.905L55.1396 72.9042L54.9814 72.9034L54.8222 72.9026L54.664 72.9018L54.5056 72.901L54.3476 72.9002L54.1885 72.8994L54.0301 72.8986L53.8719 72.8978L53.8728 72.7385L53.8736 72.5793L53.8744 72.4202L53.8752 72.2618L53.876 72.1026L53.8768 71.9435L53.8776 71.7844L53.8784 71.6253L53.8792 71.4661L53.88 71.3068L53.8808 71.1478L53.8816 70.9885L53.8824 70.8292L53.8832 70.6702L53.8841 70.5109L53.8849 70.3518L53.8857 70.1927L53.8865 70.0335L53.8872 69.8902L53.888 69.7309L53.8888 69.5719L53.8896 69.4128L53.8904 69.2535L53.8912 69.0943L53.892 68.9352L53.8929 68.7759L53.8937 68.6167L53.8945 68.4576L53.8953 68.2985L53.8961 68.1394L53.8969 67.9802L53.8977 67.8209L53.8985 67.6619L53.8993 67.5026L53.9001 67.3433L53.9009 67.1843L53.9017 67.025L53.9025 66.8659L53.9034 66.7068L53.9042 66.5476L53.905 66.3885L53.9058 66.2301L53.9066 66.0711L53.9074 65.9118L53.9082 65.7525L53.909 65.5935L53.9098 65.4344L53.9106 65.2751L53.9114 65.116L53.9122 64.9568L53.913 64.7975L53.9138 64.6385L53.9147 64.4792L53.9155 64.3201L53.9162 64.1768L53.917 64.0178L53.9178 63.8585L53.9186 63.6992L53.9194 63.5402L53.9202 63.3809L53.921 63.2218L53.9218 63.0626L53.9226 62.9035L53.9235 62.7442L53.9243 62.5852L53.9251 62.4259L53.9259 62.2666L53.9267 62.1076L53.9275 61.9485L53.9283 61.7892L53.9291 61.6301L53.9299 61.4709L53.9307 61.3116L54.0889 61.3124L54.2473 61.3132L54.4064 61.314L54.5644 61.3148L54.7227 61.3156L54.8809 61.3164L55.0402 61.3173L55.1984 61.3181L55.3566 61.3189L55.5149 61.3197L55.674 61.3205L55.8324 61.3213L55.9904 61.3221L56.1488 61.3229L56.2919 61.3236L56.4502 61.3244L56.6084 61.3252L56.7668 61.326L56.9259 61.3268L57.0841 61.3276L57.2423 61.3284L57.4006 61.3292L57.5597 61.33L57.7179 61.3308L57.8761 61.3316L58.0345 61.3324L58.1937 61.3333L58.3519 61.3341L58.5101 61.3349L58.6683 61.3357L58.8276 61.3365L58.9859 61.3373L59.1439 61.3381L59.3021 61.3389L59.4605 61.3397L59.6198 61.3405L59.778 61.3413L59.9361 61.3421L60.0943 61.3429L60.2536 61.3437L60.4118 61.3445L60.57 61.3453L60.7282 61.3461L60.8716 61.3468L61.0298 61.3476L61.188 61.3484L61.3464 61.3492L61.5055 61.3501L61.6637 61.3509L61.8218 61.3517L61.98 61.3525L62.1393 61.3533L62.2975 61.3541L62.4557 61.3549L62.614 61.3557L62.7731 61.3565L62.9315 61.3573L63.0897 61.3581L63.0889 61.5173L63.0882 61.6606L63.0873 61.8197L63.0865 61.979L63.0857 62.138L63.085 62.2813L63.0842 62.4406L63.0834 62.5998L63.0827 62.7429L63.0819 62.9022L63.081 63.0613L63.0803 63.2047L63.0795 63.3638L63.0787 63.5229L63.0779 63.6821L63.0772 63.8254L63.0764 63.9847L62.9182 63.9839L62.7598 63.9831L62.6007 63.9823L62.4424 63.9815L62.2842 63.9807L62.126 63.9799L61.9827 63.9791L61.8245 63.9783L61.6663 63.9775L61.5079 63.9767L61.3489 63.9759L61.1907 63.9751L61.0323 63.9743L60.8741 63.9735L60.7148 63.9727L60.5567 63.9719L60.3985 63.9711L60.2403 63.9703L60.081 63.9695L59.9388 63.9688L59.7804 63.968L59.6222 63.9672L59.463 63.9663L59.305 63.9655L59.1466 63.9647L58.9884 63.9639L58.8292 63.9631L58.671 63.9623L58.5128 63.9615L58.3546 63.9607L58.1953 63.9599L58.037 63.9591L57.8947 63.9584L57.7365 63.9576L57.5775 63.9568L57.4191 63.956L57.2609 63.9552L57.1025 63.9544L56.9435 63.9536L56.9427 64.1126L56.9418 64.2717L56.941 64.4308L56.9402 64.5901L56.9394 64.7493L56.9387 64.8926L56.9379 65.0517L56.9371 65.2109L56.9363 65.37L56.9355 65.5293L56.9347 65.6884L56.9339 65.8476L57.0929 65.8484L57.2513 65.8492L57.4095 65.85L57.5679 65.8508L57.7269 65.8516L57.8851 65.8524L58.0433 65.8532L58.2017 65.854L58.345 65.8548L58.5032 65.8556L58.6613 65.8564L58.8195 65.8572L58.9788 65.858L59.137 65.8588L59.2954 65.8596L59.4534 65.8604L59.6126 65.8612L59.7708 65.862L59.9292 65.8628L60.0874 65.8636L60.2465 65.8644L60.4047 65.8652L60.563 65.866L60.7214 65.8668L60.8805 65.8676L61.0387 65.8684L61.1811 65.8692L61.3393 65.87L61.4983 65.8708L61.6567 65.8716L61.8149 65.8724L61.9731 65.8732L62.1322 65.874L62.2905 65.8748L62.4487 65.8756L62.4479 66.0347L62.4472 66.1779L62.4464 66.3363L62.4456 66.4954L62.4449 66.6387L62.444 66.7977L62.4432 66.957L62.4425 67.1003L62.4417 67.2595L62.4409 67.4186L62.4401 67.5779L62.4394 67.721L62.4386 67.8801L62.4378 68.0393L62.437 68.1828L62.4362 68.3418L62.278 68.341L62.1197 68.3402L61.9606 68.3394L61.8024 68.3386L61.6442 68.3378L61.4858 68.337L61.3267 68.3362L61.1685 68.3354L61.0262 68.3347L60.868 68.3339L60.7089 68.3331L60.5505 68.3323L60.3922 68.3315L60.234 68.3307L60.0749 68.3299L59.9167 68.3291L59.7583 68.3283L59.6001 68.3275L59.4409 68.3267L59.2829 68.3259L59.1245 68.325L58.9663 68.3242L58.807 68.3234L58.6488 68.3226L58.4906 68.3218L58.3325 68.321L58.1892 68.3203L58.0308 68.3195L57.8726 68.3187L57.7144 68.3179L57.5553 68.3171L57.397 68.3163L57.2388 68.3155L57.0804 68.3147L56.9213 68.3139L56.9205 68.473L56.9196 68.6482L56.9188 68.8073L56.918 68.9665L56.9171 69.1416L56.9163 69.3008L56.9155 69.4599L56.9146 69.635L56.9138 69.7941L56.913 69.9533L56.9121 70.1284L56.9113 70.2875L57.0704 70.2883L57.2288 70.2891L57.387 70.2899L57.5453 70.2907L57.7044 70.2915L57.8626 70.2923L58.0208 70.2931L58.1792 70.2939L58.3382 70.2947L58.5124 70.2956L58.6706 70.2964L58.8288 70.2972L58.9881 70.298L59.1464 70.2988L59.3046 70.2996L59.4628 70.3004L59.6219 70.3012L59.7803 70.302L59.9385 70.3028L60.0966 70.3036L60.2548 70.3044L60.4141 70.3052L60.5723 70.306L60.7307 70.3068L60.8887 70.3076L61.0481 70.3084L61.2063 70.3092L61.3645 70.31L61.5227 70.3108L61.6977 70.3117L61.8561 70.3125L62.0141 70.3133L62.1725 70.3141L62.3318 70.315L62.4899 70.3158L62.6481 70.3166L62.8063 70.3174L62.9654 70.3182L63.1238 70.319L63.123 70.4782L63.1222 70.6215L63.1214 70.7808L63.1206 70.9398L63.1198 71.0991L63.1191 71.2424L63.1183 71.4015L63.1175 71.5605L63.1167 71.704L63.1159 71.8631L63.1151 72.0222L63.1144 72.1656L63.1136 72.3238L63.1128 72.4829L63.112 72.642L63.1113 72.7854L63.1105 72.9447L62.9521 72.9439ZM51.3737 72.8851L51.2155 72.8843L51.0572 72.8835L50.8823 72.8826L50.7241 72.8818L50.5657 72.881L50.4075 72.8802L50.2483 72.8794L50.0901 72.8786L49.9159 72.8777L49.7577 72.8769L49.5994 72.8761L49.4403 72.8753L49.2821 72.8745L49.1239 72.8737L48.9497 72.8728L48.7905 72.872L48.6323 72.8712L48.4739 72.8704L48.4747 72.7112L48.4755 72.5519L48.4763 72.3928L48.4771 72.2336L48.4779 72.0734L48.4787 71.9143L48.4796 71.7551L48.4804 71.5958L48.4812 71.4368L48.482 71.2777L48.4828 71.1184L48.4836 70.9584L48.4844 70.7992L48.4852 70.6399L48.486 70.4809L48.4868 70.3216L48.4876 70.1615L48.4884 70.0022L48.4893 69.8431L48.4901 69.684L48.4909 69.5248L48.4917 69.3657L48.4925 69.2056L48.4933 69.0465L48.4941 68.8872L48.4949 68.728L48.4957 68.5689L48.4965 68.4096L48.4973 68.2495L48.4981 68.0902L48.4989 67.9311L48.4998 67.7721L48.5006 67.613L48.5014 67.4537L48.5022 67.2936L48.503 67.1345L48.5038 66.9752L48.5046 66.8162L48.5054 66.6569L48.5062 66.4968L48.507 66.3377L48.5078 66.1784L48.5086 66.0192L48.4286 66.1461L48.3333 66.2899L48.2529 66.4168L48.1578 66.5438L48.0776 66.6865L47.9812 66.8135L47.9021 66.9404L47.8216 67.0842L47.7265 67.211L47.6462 67.3379L47.5502 67.4649L47.4708 67.6087L47.3746 67.7355L47.2953 67.8624L47.2149 68.0052L47.1187 68.1329L47.0394 68.26L46.9432 68.4026L46.8641 68.5297L46.7679 68.6565L46.6885 68.8003L46.6082 68.9274L46.5122 69.0542L46.4328 69.1971L46.3366 69.3248L46.2573 69.4517L46.1612 69.5787L46.0807 69.7214L46.0014 69.8491L45.9054 69.9761L45.826 70.119L45.7299 70.2458L45.6497 70.3727L45.5543 70.5166L45.4741 70.6435L45.4113 70.6432L45.3167 70.4994L45.2376 70.3706L45.1437 70.2269L45.0648 70.0992L44.9709 69.9556L44.892 69.8268L44.7983 69.6831L44.7192 69.5552L44.6244 69.4116L44.5464 69.2839L44.4516 69.1391L44.3738 69.0114L44.279 68.8676L44.2 68.7399L44.1062 68.5953L44.0272 68.4676L43.9334 68.3238L43.8386 68.196L43.7597 68.0515L43.6658 67.9237L43.5869 67.78L43.493 67.6522L43.4142 67.5075L43.3202 67.3797L43.2414 67.236L43.1465 67.1082L43.0686 66.9645L42.9737 66.8357L42.8958 66.6922L42.8009 66.5642L42.7221 66.4206L42.6283 66.293L42.5491 66.1482L42.4553 66.0204L42.4545 66.1795L42.4537 66.3388L42.4529 66.498L42.4521 66.658L42.4513 66.8172L42.4505 66.9763L42.4496 67.1356L42.4488 67.2948L42.448 67.4548L42.4472 67.6141L42.4465 67.7573L42.4457 67.9164L42.4449 68.0757L42.4441 68.2348L42.4433 68.3949L42.4424 68.5542L42.4416 68.7132L42.4408 68.8723L42.44 69.0316L42.4392 69.1908L42.4384 69.3508L42.4376 69.5101L42.4368 69.6693L42.436 69.8284L42.4352 69.9877L42.4344 70.1467L42.4336 70.3069L42.4327 70.466L42.4319 70.6252L42.4311 70.7843L42.4303 70.9436L42.4295 71.1035L42.4288 71.247L42.428 71.406L42.4272 71.5651L42.4264 71.7244L42.4256 71.8836L42.4248 72.0427L42.4239 72.2029L42.4231 72.3621L42.4223 72.5212L42.4215 72.6805L42.4207 72.8397L42.2625 72.8389L42.1034 72.8381L41.9451 72.8373L41.7869 72.8365L41.6287 72.8357L41.4696 72.8349L41.3112 72.8341L41.153 72.8333L40.9947 72.8325L40.8356 72.8317L40.6774 72.8309L40.519 72.8301L40.3608 72.8293L40.2018 72.8285L40.0436 72.8277L39.8852 72.8269L39.7268 72.8261L39.5678 72.8253L39.4096 72.8244L39.4104 72.6652L39.4112 72.5059L39.412 72.3469L39.4128 72.1885L39.4136 72.0292L39.4144 71.8701L39.4152 71.7111L39.416 71.552L39.4168 71.3927L39.4176 71.2335L39.4184 71.0744L39.4192 70.9151L39.4201 70.7559L39.4209 70.5968L39.4217 70.4375L39.4225 70.2785L39.4233 70.1194L39.4241 69.9601L39.4248 69.8168L39.4256 69.6576L39.4264 69.4985L39.4272 69.3394L39.428 69.1802L39.4289 69.0209L39.4297 68.8618L39.4305 68.7026L39.4313 68.5433L39.4321 68.3842L39.4329 68.2252L39.4337 68.0661L39.4345 67.9068L39.4353 67.7476L39.4361 67.5885L39.4369 67.4292L39.4377 67.27L39.4385 67.1109L39.4394 66.9516L39.4402 66.7926L39.441 66.6335L39.4418 66.4742L39.4426 66.3151L39.4434 66.1568L39.4442 65.9977L39.445 65.8384L39.4458 65.6792L39.4466 65.5201L39.4474 65.361L39.4482 65.2018L39.449 65.0427L39.4498 64.8834L39.4507 64.7242L39.4515 64.5651L39.4523 64.4058L39.4531 64.2468L39.4538 64.1035L39.4546 63.9444L39.4554 63.7851L39.4562 63.6259L39.457 63.4668L39.4578 63.3075L39.4586 63.1485L39.4595 62.9892L39.4603 62.8301L39.4611 62.6709L39.4619 62.5118L39.4627 62.3525L39.4635 62.1933L39.4643 62.0342L39.4651 61.8751L39.4659 61.7159L39.4667 61.5568L39.4675 61.3975L39.4683 61.2383L39.6265 61.2391L39.7856 61.2399L39.9282 61.2406L40.0862 61.2414L40.2446 61.2422L40.4036 61.243L40.546 61.2437L40.7042 61.2445L40.8635 61.2453L41.0217 61.2461L41.1641 61.2469L41.3222 61.2477L41.4815 61.2485L41.6397 61.2493L41.7819 61.25L41.9401 61.2508L42.0994 61.2516L42.2577 61.2524L42.3999 61.2531L42.5581 61.2539L42.7174 61.2548L42.7954 61.3826L42.8742 61.5261L42.968 61.653L43.047 61.7967L43.1259 61.9244L43.2038 62.0683L43.2827 62.1949L43.3768 62.3388L43.4555 62.4665L43.5346 62.5942L43.6125 62.7368L43.6914 62.8647L43.7853 63.0083L43.8642 63.1362L43.943 63.2788L44.021 63.4065L44.1159 63.5343L44.1949 63.6773L44.2727 63.8048L44.3516 63.9485L44.4297 64.0763L44.5245 64.219L44.6034 64.3469L44.6812 64.4904L44.7603 64.6172L44.8383 64.7449L44.9331 64.8887L45.0119 65.0166L45.0899 65.1603L45.1688 65.2871L45.2467 65.4307L45.3417 65.5585L45.4206 65.7011L45.4986 65.829L45.5788 65.7019L45.659 65.5601L45.7543 65.4333L45.8344 65.2904L45.9139 65.1644L45.9941 65.0216L46.0894 64.8946L46.1697 64.7517L46.25 64.6248L46.3291 64.4988L46.4254 64.3562L46.5047 64.2291L46.5851 64.0873L46.6651 63.9602L46.7605 63.8174L46.8407 63.6907L46.9211 63.5485L47.0002 63.4216L47.0808 63.2947L47.1759 63.153L47.2561 63.0259L47.3364 62.8832L47.4159 62.7561L47.5119 62.6144L47.5914 62.4875L47.6714 62.3606L47.7519 62.2176L47.847 62.0918L47.9274 61.9488L48.0065 61.8219L48.087 61.679L48.1831 61.5531L48.2625 61.4104L48.3427 61.2833L48.5009 61.2841L48.6593 61.2849L48.8024 61.2856L48.9607 61.2864L49.1189 61.2872L49.2771 61.288L49.4204 61.2888L49.5788 61.2896L49.7368 61.2904L49.8951 61.2912L50.0384 61.2919L50.1966 61.2927L50.3548 61.2935L50.5132 61.2943L50.6563 61.295L50.8146 61.2958L50.9728 61.2966L51.131 61.2974L51.2743 61.2982L51.4325 61.299L51.5907 61.2998L51.5899 61.459L51.5891 61.6183L51.5883 61.7774L51.5875 61.9366L51.5867 62.0957L51.5858 62.2548L51.585 62.414L51.5842 62.5733L51.5834 62.7324L51.5826 62.8916L51.5818 63.0507L51.581 63.21L51.5802 63.369L51.5794 63.5283L51.5786 63.6874L51.5778 63.8466L51.577 64.0059L51.5762 64.165L51.5754 64.3082L51.5746 64.4673L51.5738 64.6266L51.573 64.7857L51.5722 64.9449L51.5714 65.1042L51.5706 65.2633L51.5698 65.4225L51.569 65.5816L51.5682 65.7407L51.5674 65.8999L51.5665 66.0592L51.5657 66.2183L51.5649 66.3766L51.5641 66.5357L51.5633 66.695L51.5625 66.8541L51.5617 67.0131L51.5609 67.1724L51.5601 67.3315L51.5593 67.4907L51.5585 67.65L51.5577 67.8091L51.5569 67.9683L51.5561 68.1276L51.5552 68.2867L51.5544 68.4457L51.5536 68.6048L51.5528 68.7641L51.552 68.9233L51.5512 69.0824L51.5504 69.2417L51.5496 69.4009L51.5488 69.56L51.548 69.7191L51.5472 69.8783L51.5464 70.0216L51.5456 70.1809L51.5448 70.34L51.544 70.499L51.5432 70.6583L51.5424 70.8174L51.5416 70.9766L51.5408 71.1359L51.54 71.295L51.5392 71.4542L51.5384 71.6135L51.5376 71.7726L51.5368 71.9316L51.536 72.0907L51.5351 72.25L51.5343 72.4083L51.5335 72.5674L51.5327 72.7267L51.5319 72.8859L51.3737 72.8851ZM33.0117 68.0175L32.9646 67.8731L32.9028 67.7135L32.8397 67.5699L32.7927 67.4255L32.7308 67.2819L32.668 67.1224L32.6208 66.978L32.5578 66.8344L32.496 66.6909L32.4488 66.5465L32.3859 66.3869L32.3399 66.2434L32.2769 66.0989L32.2139 65.9553L32.1671 65.8118L32.105 65.6515L32.0422 65.5078L31.9952 65.3644L31.9321 65.2199L31.8703 65.0604L31.8233 64.9159L31.7602 64.7723L31.6968 64.9153L31.6485 65.0592L31.584 65.2182L31.5195 65.362L31.4719 65.5049L31.4076 65.648L31.3431 65.8076L31.2797 65.9506L31.231 66.0936L31.1667 66.2375L31.1023 66.3804L31.0546 66.5395L30.9903 66.6833L30.9258 66.8261L30.8775 66.9691L30.8139 67.113L30.7494 67.2719L30.6851 67.4149L30.6377 67.5588L30.5732 67.7017L30.5087 67.8607L30.4602 68.0046L30.3968 68.1476L30.555 68.1484L30.7132 68.1492L30.8715 68.15L31.0306 68.1508L31.1888 68.1516L31.347 68.1524L31.5054 68.1532L31.6646 68.154L31.8068 68.1547L31.965 68.1555L32.1243 68.1563L32.2825 68.1571L32.4407 68.1579L32.599 68.1587L32.7572 68.1595L32.9163 68.1603L33.0745 68.1611L33.0117 68.0175ZM37.964 72.8171L37.8049 72.8163L37.6624 72.8156L37.5043 72.8148L37.3451 72.814L37.1869 72.8132L37.0285 72.8124L36.8863 72.8116L36.727 72.8108L36.5689 72.81L36.4107 72.8092L36.2523 72.8084L36.0932 72.8076L35.9508 72.8069L35.7926 72.8061L35.6343 72.8053L35.4752 72.8045L35.317 72.8037L35.1746 72.803L35.0164 72.8022L34.8573 72.8014L34.7952 72.6576L34.7482 72.5141L34.6853 72.3705L34.6224 72.2111L34.5763 72.0684L34.5134 71.925L34.4504 71.7814L34.4043 71.6379L34.3414 71.4943L34.2784 71.3507L34.2316 71.2072L34.1695 71.0478L34.1065 70.9042L34.0595 70.7606L33.9965 70.617L33.8383 70.6162L33.6801 70.6154L33.5219 70.6146L33.3637 70.6138L33.2204 70.6131L33.0621 70.6123L32.9039 70.6115L32.7448 70.6107L32.5866 70.6099L32.4282 70.6091L32.27 70.6083L32.1118 70.6075L31.9526 70.6067L31.7944 70.6059L31.6522 70.6052L31.4929 70.6043L31.3346 70.6035L31.1764 70.6027L31.0182 70.6019L30.8591 70.6011L30.7007 70.6003L30.5425 70.5995L30.3843 70.5987L30.2261 70.5979L30.0827 70.5972L29.9247 70.5964L29.7663 70.5956L29.607 70.5948L29.4489 70.594L29.3855 70.7369L29.337 70.88L29.2725 71.0229L29.2081 71.1817L29.1605 71.3247L29.0963 71.4677L29.0318 71.6106L28.9833 71.7537L28.9199 71.8966L28.8554 72.0394L28.807 72.1816L28.7433 72.3403L28.679 72.4833L28.6305 72.6263L28.5661 72.7694L28.4079 72.7686L28.2497 72.7678L28.0915 72.767L27.9322 72.7662L27.774 72.7654L27.5999 72.7645L27.4417 72.7637L27.2833 72.7629L27.1242 72.7621L26.966 72.7613L26.8078 72.7605L26.6495 72.7597L26.4902 72.7589L26.3322 72.7581L26.174 72.7573L25.9998 72.7564L25.8406 72.7556L25.6824 72.7548L25.524 72.754L25.3658 72.7532L25.4292 72.6101L25.4937 72.4671L25.558 72.3242L25.6216 72.1654L25.6701 72.0233L25.7346 71.8805L25.7989 71.7375L25.8623 71.5946L25.9267 71.4516L25.9913 71.2927L26.0547 71.1497L26.1191 71.0069L26.1675 70.8639L26.2319 70.7209L26.2953 70.578L26.3599 70.4192L26.4242 70.2763L26.4877 70.1331L26.5522 69.9904L26.6165 69.8474L26.665 69.7044L26.7284 69.5454L26.7929 69.4026L26.8574 69.2597L26.9208 69.1167L26.9852 68.9738L27.0497 68.8308L27.1132 68.6719L27.1617 68.529L27.2261 68.3861L27.2904 68.2431L27.354 68.1002L27.4183 67.9572L27.4827 67.7984L27.5462 67.6555L27.6105 67.5125L27.659 67.3695L27.7235 67.2267L27.7869 67.0838L27.8514 66.9248L27.9159 66.7819L27.9793 66.6389L28.0436 66.496L28.108 66.3532L28.1565 66.21L28.2201 66.0681L28.2845 65.9091L28.3488 65.7664L28.4123 65.6232L28.4766 65.4803L28.5411 65.3375L28.6045 65.1945L28.653 65.0355L28.7175 64.8927L28.7818 64.7498L28.8454 64.6068L28.9098 64.4639L28.9741 64.3209L29.0378 64.162L29.1021 64.0192L29.1506 63.8762L29.2149 63.7332L29.2784 63.5902L29.3427 63.4473L29.4073 63.2885L29.4707 63.1456L29.5351 63.0026L29.5996 62.8597L29.647 62.7168L29.7115 62.5737L29.776 62.4149L29.8405 62.2719L29.9039 62.129L29.9684 61.986L30.0326 61.8431L30.096 61.7003L30.1448 61.5413L30.2091 61.3983L30.2735 61.2554L30.3369 61.1124L30.4951 61.1132L30.6384 61.1139L30.7966 61.1147L30.9548 61.1155L31.114 61.1164L31.2563 61.1171L31.4144 61.1179L31.5728 61.1187L31.7321 61.1195L31.8745 61.1202L32.0325 61.121L32.1908 61.1218L32.3499 61.1226L32.4923 61.1233L32.6505 61.1241L32.8087 61.1249L32.968 61.1258L33.1102 61.1265L33.2685 61.1273L33.3314 61.2709L33.3944 61.4145L33.4565 61.5581L33.5193 61.7177L33.5663 61.861L33.6282 62.0046L33.6913 62.1482L33.7541 62.2918L33.8171 62.4354L33.879 62.5948L33.942 62.7386L34.005 62.882L34.051 63.0255L34.114 63.1691L34.177 63.3127L34.2399 63.4721L34.3019 63.6157L34.3647 63.7593L34.4277 63.9029L34.4897 64.0465L34.5367 64.1899L34.5994 64.3494L34.6616 64.493L34.7246 64.6366L34.7874 64.7802L34.8504 64.9238L34.9124 65.0673L34.9751 65.2268L35.0223 65.3704L35.0843 65.5138L35.1471 65.6574L35.2101 65.8012L35.2731 65.9446L35.335 66.1042L35.398 66.2467L35.4608 66.3905L35.507 66.5338L35.5698 66.6774L35.6328 66.821L35.695 66.9646L35.7577 67.1242L35.8207 67.2678L35.8837 67.4112L35.9457 67.5548L35.9927 67.6983L36.0556 67.8419L36.1176 68.0013L36.1804 68.1449L36.2434 68.2885L36.3063 68.4321L36.3684 68.5757L36.4314 68.7191L36.4782 68.8787L36.5403 69.0222L36.6031 69.1658L36.6662 69.3094L36.7281 69.453L36.7911 69.5965L36.854 69.756L36.9171 69.8997L36.963 70.0432L37.026 70.1866L37.089 70.3304L37.151 70.474L37.2137 70.6334L37.2768 70.777L37.3396 70.9206L37.4015 71.0642L37.4487 71.2075L37.5118 71.3511L37.5736 71.5107L37.6365 71.6543L37.6993 71.7979L37.7614 71.9415L37.8243 72.0849L37.8873 72.2276L37.9344 72.3869L37.9962 72.5305L38.0592 72.6741L38.122 72.8179L37.964 72.8171ZM24.0888 71.267L23.961 71.3619L23.85 71.4411L23.7222 71.5359L23.5954 71.6148L23.4685 71.7097L23.3408 71.7886L23.214 71.8677L23.0703 71.9463L22.9275 72.0253L22.7847 72.1041L22.6413 72.1661L22.4985 72.2451L22.34 72.3078L22.1975 72.3709L22.0379 72.4336L21.8953 72.4966L21.7525 72.5437L21.6092 72.5907L21.4666 72.6379L21.3081 72.6847L21.1657 72.7319L21.0062 72.7629L20.8637 72.7939L20.7053 72.8249L20.5461 72.8559L20.3877 72.8711L20.2134 72.8862L20.0551 72.9013L19.8809 72.9162L19.7215 72.9314L19.5475 72.9463L19.3733 72.9455L19.1989 72.9446L19.025 72.9437L18.8657 72.9429L18.7076 72.9263L18.5335 72.9094L18.3754 72.8928L18.2173 72.876L18.0581 72.8592L17.9001 72.8267L17.7419 72.7939L17.5998 72.7614L17.4409 72.7288L17.2987 72.6803L17.1407 72.6477L16.9977 72.5991L16.8556 72.5348L16.7135 72.4863L16.5558 72.4218L16.4128 72.3575L16.2707 72.2932L16.1289 72.2288L15.9858 72.1485L15.86 72.069L15.718 71.9887L15.5911 71.9084L15.4651 71.8284L15.3383 71.732L15.2123 71.6361L15.0862 71.5399L14.9754 71.4438L14.8654 71.3477L14.7545 71.2357L14.6446 71.1398L14.5336 71.0277L14.4238 70.9156L14.3288 70.8038L14.2348 70.6761L14.1399 70.5641L14.061 70.4364L13.967 70.3084L13.8883 70.1809L13.8101 70.053L13.7313 69.9093L13.6524 69.7816L13.5904 69.638L13.5274 69.4944L13.4646 69.3508L13.4025 69.2074L13.3554 69.0799L13.2924 68.9361L13.2613 68.7927L13.2152 68.6493L13.1842 68.4901L13.1371 68.3464L13.1062 68.1871L13.0909 68.0438L13.0598 67.8844L13.0449 67.7412L13.0295 67.5819L13.0154 67.4225L13.0004 67.2634L13.0013 67.0883L13.0021 66.929L13.0023 66.8973L13.0031 66.738L13.0198 66.563L13.0206 66.4039L13.0363 66.2448L13.0533 66.0698L13.0859 65.9118L13.1025 65.7526L13.1351 65.6095L13.1836 65.4506L13.2164 65.2915L13.2638 65.1485L13.3124 64.9897L13.3609 64.8466L13.4254 64.6877L13.489 64.5449L13.5533 64.4019L13.6177 64.259L13.6811 64.116L13.7614 63.9732L13.8416 63.8463L13.9211 63.7192L14.0011 63.5923L14.0814 63.4654L14.1765 63.3386L14.2727 63.2118L14.368 63.0849L14.4641 62.9737L14.575 62.863L14.6711 62.752L14.7823 62.6414L14.8942 62.5303L15.0051 62.4355L15.133 62.3246L15.2441 62.2297L15.371 62.1348L15.4987 62.0559L15.6256 61.961L15.7534 61.8821L15.8801 61.8032L16.0229 61.7243L16.1666 61.6454L16.3092 61.5666L16.4519 61.5036L16.5953 61.4408L16.7541 61.3619L16.8807 61.3149L17.0392 61.2678L17.1829 61.2049L17.3253 61.1737L17.4678 61.1267L17.627 61.0957L17.7697 61.0487L17.928 61.0177L18.0865 61.0025L18.2457 60.9715L18.4041 60.9564L18.5622 60.9414L18.7207 60.9262L18.88 60.911L19.0542 60.9119L19.2124 60.9127L19.3864 60.9136L19.5606 60.9145L19.7357 60.9313L19.9098 60.9482L20.068 60.949L20.2261 60.9656L20.4001 60.9984L20.5433 61.015L20.7013 61.0477L20.8595 61.0803L21.0025 61.1128L21.1445 61.1453L21.2869 61.178L21.43 61.2265L21.572 61.259L21.6982 61.3074L21.8412 61.3559L21.9833 61.4202L22.1252 61.4846L22.2681 61.5491L22.4101 61.6293L22.552 61.6938L22.6791 61.774L22.8209 61.8543L22.9469 61.9344L23.0898 62.0149L23.2157 62.1109L23.3417 62.1912L23.4685 62.2874L23.5945 62.3835L23.7212 62.4955L23.8471 62.5917L23.751 62.7187L23.64 62.8294L23.5438 62.9562L23.4327 63.083L23.3366 63.21L23.2414 63.3208L23.1292 63.4475L23.0341 63.5744L22.938 63.6856L22.8268 63.8123L22.7308 63.9391L22.6195 64.0658L22.5235 64.1769L22.4284 64.3037L22.3164 64.4304L22.2209 64.5572L22.1091 64.6682L22.0138 64.795L21.887 64.6988L21.7611 64.5869L21.6342 64.5065L21.5083 64.4103L21.3823 64.3302L21.2554 64.2498L21.1292 64.1698L20.9874 64.0893L20.8604 64.0251L20.7343 63.9608L20.6073 63.9124L20.4651 63.8639L20.3232 63.8154L20.18 63.7829L20.022 63.7501L19.864 63.7175L19.7057 63.7009L19.5316 63.6841L19.3566 63.6674L19.1824 63.6665L19.0243 63.6657L18.866 63.6807L18.7226 63.696L18.5643 63.7269L18.4217 63.7582L18.2782 63.805L18.1357 63.8521L17.993 63.9151L17.8503 63.9779L17.7226 64.0568L17.596 64.1359L17.4681 64.215L17.3572 64.3097L17.2452 64.4047L17.1343 64.4997L17.0382 64.6105L16.9272 64.7214L16.831 64.8482L16.7516 64.9593L16.6715 65.0862L16.5923 65.2291L16.5119 65.356L16.4476 65.499L16.3991 65.642L16.3355 65.785L16.287 65.9438L16.2544 66.102L16.2219 66.2449L16.189 66.42L16.1724 66.579L16.1567 66.738L16.1558 66.9133L16.1557 66.945L16.1548 67.1043L16.169 67.2635L16.184 67.4068L16.1992 67.5661L16.2303 67.7094L16.2615 67.853L16.2925 67.9963L16.3396 68.1398L16.3858 68.2673L16.4487 68.4267L16.5116 68.5705L16.5895 68.7142L16.6684 68.8419L16.7473 68.9696L16.8413 69.0976L16.9362 69.2094L17.0461 69.3214L17.1412 69.4332L17.251 69.5293L17.378 69.6255L17.5039 69.7216L17.6297 69.8018L17.7566 69.882L17.8989 69.9465L18.0408 70.0109L18.1835 70.0752L18.3417 70.1238L18.4996 70.1723L18.6587 70.2051L18.8167 70.2377L18.9749 70.2543L19.1489 70.2711L19.3231 70.272L19.5131 70.273L19.6884 70.2579L19.8627 70.243L20.0209 70.2278L20.1793 70.1967L20.3387 70.1657L20.4971 70.1189L20.6395 70.0877L20.7824 70.0248L20.91 69.9617L21.0526 69.8987L21.1642 69.8357L21.2912 69.7566L21.292 69.5976L21.2928 69.4385L21.2936 69.2792L21.2944 69.1202L21.2953 68.9449L21.2961 68.7858L21.2969 68.6266L21.2977 68.4675L21.2985 68.3082L21.1402 68.3074L20.9971 68.3067L20.8387 68.3059L20.6805 68.3051L20.5223 68.3043L20.379 68.3036L20.2207 68.3028L20.0625 68.302L19.9043 68.3012L19.7612 68.3004L19.6028 68.2996L19.4446 68.2988L19.2863 68.298L19.1432 68.2973L18.9848 68.2965L18.9856 68.1374L18.9863 67.9942L18.9871 67.8349L18.9879 67.6758L18.9887 67.5166L18.9895 67.3733L18.9903 67.2142L18.9911 67.0549L18.9919 66.8959L18.9926 66.7524L18.9934 66.5933L18.9942 66.4342L18.995 66.275L18.9958 66.1317L18.9966 65.9735L19.1549 65.9743L19.314 65.9751L19.4724 65.9759L19.6304 65.9767L19.7888 65.9775L19.947 65.9783L20.1062 65.9791L20.2644 65.9799L20.4226 65.9808L20.581 65.9816L20.7401 65.9824L20.8982 65.9832L21.0564 65.984L21.2146 65.9848L21.3739 65.9856L21.5323 65.9864L21.6904 65.9872L21.8486 65.988L22.0077 65.9888L22.1661 65.9896L22.3243 65.9904L22.4825 65.9912L22.6415 65.992L22.7999 65.9928L22.9581 65.9936L23.1163 65.9944L23.2756 65.9952L23.4338 65.996L23.5921 65.9968L23.7503 65.9976L23.9094 65.9984L24.0676 65.9992L24.226 66L24.2252 66.1582L24.2243 66.3173L24.2235 66.4766L24.2228 66.6199L24.222 66.7789L24.2212 66.9382L24.2204 67.0973L24.2196 67.2565L24.2188 67.4158L24.218 67.5589L24.2172 67.7181L24.2164 67.8774L24.2156 68.0365L24.2148 68.1957L24.214 68.3548L24.2132 68.5141L24.2125 68.6572L24.2117 68.8164L24.2109 68.9757L24.2101 69.1349L24.2092 69.294L24.2084 69.4533L24.2076 69.6124L24.2069 69.7556L24.2061 69.9147L24.2053 70.074L24.2045 70.2332L24.2037 70.3923L24.2029 70.5514L24.2021 70.6948L24.2013 70.8539L24.2005 71.013L24.1997 71.1723L24.0888 71.267ZM26.0449 34.9547L19.1769 34.9198L19.1183 46.4776L26.3683 46.5144L26.3414 51.827L13.2592 51.7607L13.4537 13.4198L26.4272 13.4857L26.4003 18.7981L19.2589 18.7619L19.2039 29.6074L26.0718 29.6422L26.0449 34.9547ZM68.3637 36.3202L68.3198 44.9744C68.3121 46.5083 67.5995 47.2163 66.1286 47.2088L65.0377 47.2033C63.5117 47.1955 62.8064 46.4803 62.8142 44.9465L62.937 20.7363C62.9448 19.2026 63.6573 18.4946 65.1833 18.5024L66.1646 18.5074C67.6364 18.5148 68.3418 19.23 68.334 20.7636L68.2959 28.2682L74.0187 28.2973L74.0584 20.464C74.0826 15.6993 71.8048 13.387 67.0635 13.363L64.2283 13.3486C59.4868 13.3246 57.1302 15.6676 57.1061 20.4333L56.9805 45.1904C56.9563 49.9562 59.289 52.3228 64.0305 52.3469L66.9199 52.3615C71.6624 52.3856 74.0178 50.0427 74.0419 45.2769L74.0872 36.3493L68.3637 36.3202ZM53.8636 51.9666L48.0305 51.937L48.225 13.596L54.058 13.6256L53.8636 51.9666ZM39.6759 30.5874C39.6682 32.1212 38.9567 32.8301 37.4848 32.8226L35.086 32.8105L35.1577 18.6787L37.5565 18.6908C39.0284 18.6983 39.7326 19.4137 39.7248 20.9471L39.6759 30.5874ZM38.5087 13.5468L29.3515 13.5003L29.157 51.8413L34.9894 51.8709L35.0599 37.9582L38.3848 37.975C43.1272 37.9991 45.4827 35.6562 45.5069 30.8915L45.5586 20.7033C45.5827 15.9376 43.2511 13.5708 38.5087 13.5468ZM60.2309 86.6679L26.843 86.4985L43.1606 92.2014L60.2309 86.6679Z" fill="#F2F3FF"/>
</svg>
