<svg width="57" height="57" viewBox="0 0 57 57" fill="none" xmlns="http://www.w3.org/2000/svg">
<path fill-rule="evenodd" clip-rule="evenodd" d="M1.42387 36.3511C4.88788 47.7214 15.4602 56.0002 27.9632 56.0002C43.284 56.0002 55.7041 43.5801 55.7041 28.2594C55.7041 12.9386 43.284 0.518555 27.9632 0.518555C13.2623 0.518555 1.23235 11.9556 0.282227 26.4163C0.286264 26.4231 0.290296 26.4299 0.294323 26.4366C0.294488 26.4338 0.294576 26.4324 0.294576 26.4324L15.2009 32.5761C15.6084 32.3003 16.0437 32.0678 16.4996 31.8826C17.5468 31.4517 18.6495 31.2584 19.7487 31.3087L26.5365 21.4477L26.5339 21.3107H26.5253C26.5253 15.4903 31.2525 10.7571 37.0624 10.7571C42.8837 10.7692 47.5996 15.4903 47.5996 21.3107C47.5996 27.1311 42.875 31.8696 37.0624 31.8696L36.824 31.8652L27.1208 38.8048C27.1489 39.8912 26.9468 40.9713 26.5279 41.9742C25.7426 43.8568 24.2423 45.3509 22.3563 46.1282C20.4703 46.9054 18.3529 46.9024 16.4692 46.1197C14.0748 45.1227 12.4451 43.0491 11.9249 40.6842L1.42387 36.3511ZM17.1428 44.4951C20.1657 45.7547 23.6437 44.3269 24.9042 41.2928H24.8972C25.5058 39.8312 25.5092 38.2127 24.9059 36.745C24.3025 35.2773 23.1756 34.1296 21.7018 33.5201C20.2472 32.9159 18.6919 32.9332 17.324 33.4534L20.8783 34.9228C21.9488 35.3701 22.7979 36.224 23.2392 37.2969C23.6806 38.3699 23.6779 39.5742 23.2319 40.6452C23.0116 41.1752 22.6891 41.6567 22.2827 42.0621C21.8763 42.4674 21.394 42.7887 20.8634 43.0076C20.3328 43.2265 19.7642 43.3387 19.1903 43.3378C18.6163 43.3369 18.0481 43.2229 17.5182 43.0023L14.0878 41.5806C14.7141 42.894 15.8014 43.9313 17.1428 44.4951ZM32.1089 26.2793C33.4248 27.5975 35.2094 28.3406 37.072 28.3456C38.9348 28.341 40.7199 27.5982 42.0361 26.2799C43.3523 24.9616 44.0923 23.1753 44.0939 21.3124C44.0918 19.4499 43.3516 17.664 42.0355 16.3461C40.7194 15.0282 38.9345 14.2856 37.072 14.281C35.2097 14.2861 33.4253 15.0288 32.1096 16.3467C30.7938 17.6646 30.0539 19.4502 30.0518 21.3124C30.0534 23.175 30.7931 24.961 32.1089 26.2793ZM33.3533 17.5683C32.365 18.5591 31.8105 19.9017 31.8116 21.3012C31.8109 22.7005 32.3649 24.0428 33.3534 25.0332C34.3419 26.0236 35.6831 26.5811 37.0824 26.5832C38.4821 26.5818 39.824 26.0246 40.813 25.0341C41.8021 24.0436 42.3573 22.7009 42.3566 21.3012C42.3566 18.3841 39.9908 16.0174 37.0824 16.0174C35.6829 16.0197 34.3417 16.5775 33.3533 17.5683Z" fill="#F2F3FF"/>
</svg>
