<svg width="57" height="57" viewBox="0 0 57 57" fill="none" xmlns="http://www.w3.org/2000/svg">
<path d="M12.6878 0.702339C7.16234 1.69025 2.71672 5.77976 1.31526 11.1559C0.809817 13.0972 0.775355 14.2345 0.832792 29.2944C0.867254 43.1252 0.878741 43.4469 1.10849 44.5152C2.38359 50.2704 6.47309 54.3714 12.2857 55.7269C13.0439 55.8992 14.0088 55.9337 20.2235 55.9681C26.6564 56.0141 27.3227 56.0026 27.495 55.8303C27.6673 55.658 27.6788 53.4409 27.6788 28.3065C27.6788 9.67398 27.6443 0.897625 27.5639 0.736801C27.449 0.530029 27.2538 0.518539 20.5222 0.530029C15.0542 0.541515 13.4115 0.575977 12.6878 0.702339ZM23.0838 28.272V51.5455L18.4085 51.488C14.1007 51.4421 13.6412 51.4191 12.7797 51.2009C9.08073 50.2474 6.33525 47.3985 5.56559 43.6881C5.31287 42.5279 5.31287 13.9473 5.5541 12.81C6.24335 9.58208 8.48339 6.90552 11.5046 5.69935C13.0209 5.09052 13.7216 5.02159 18.6382 5.01011L23.0838 4.99862V28.272Z" fill="#F2F3FF"/>
<path d="M13.6754 12.0175C12.9517 12.1553 11.8489 12.7067 11.2631 13.2237C10.0569 14.269 9.45955 15.7509 9.55145 17.497C9.5974 18.4045 9.65484 18.6457 10.0224 19.3809C10.5623 20.4952 11.3779 21.3108 12.4922 21.8622C13.2619 22.2413 13.4572 22.2872 14.4566 22.3217C15.3641 22.3561 15.6857 22.3217 16.2945 22.1149C18.7873 21.2763 20.2921 18.8525 19.8671 16.3712C19.3732 13.419 16.5702 11.4431 13.6754 12.0175Z" fill="#F2F3FF"/>
<path d="M33.273 0.598953C33.2271 0.633415 33.1926 13.0857 33.1926 28.272C33.1926 53.326 33.2041 55.8647 33.3764 55.9336C33.6866 56.0485 42.6008 56.0026 43.7036 55.8877C48.3674 55.3593 52.4799 52.5219 54.72 48.306C55.0072 47.7661 55.3862 46.8586 55.5815 46.2957C56.3052 44.1361 56.2823 44.7105 56.2823 28.2031C56.2823 15.0271 56.2593 13.0628 56.0985 12.2242C54.9612 6.23925 50.4007 1.72472 44.4043 0.690853C43.6002 0.553001 42.3596 0.518539 38.3619 0.518539C35.605 0.518539 33.3075 0.553001 33.273 0.598953ZM45.5416 25.6185C47.3336 26.0894 48.804 27.4564 49.4013 29.2025C49.7804 30.2823 49.7689 31.8676 49.3898 32.8555C48.6891 34.6705 47.3106 35.9456 45.5416 36.4166C42.6697 37.1633 39.6141 35.4287 38.7755 32.5798C38.5228 31.7068 38.5343 30.2364 38.8214 29.3404C39.683 26.526 42.6697 24.8718 45.5416 25.6185Z" fill="#F2F3FF"/>
</svg>
