<svg width="57" height="57" viewBox="0 0 57 57" fill="none" xmlns="http://www.w3.org/2000/svg">
<path d="M25.6379 55.885C21.3746 55.4784 17.0559 53.9443 13.3409 51.517C10.2297 49.4839 9.52741 48.6522 9.52741 46.9826C9.52741 43.6373 13.2054 37.7722 19.4894 31.0939C23.0627 27.2988 28.0345 22.8507 28.5705 22.9678C29.6178 23.2019 37.978 31.3711 41.1077 35.2093C46.061 41.2962 48.3405 46.2741 47.1823 48.492C46.3013 50.1801 40.8489 53.4761 36.8444 54.7391C33.5422 55.7864 29.205 56.23 25.6379 55.885ZM5.3319 43.5079C2.75052 39.5404 1.44443 35.6283 0.809864 29.9788C0.600396 28.1121 0.674326 27.0462 1.28425 23.2142C2.04203 18.4396 4.75278 12.9195 8.01801 9.51875C9.41035 8.07096 9.53357 8.034 11.2278 8.60695C13.2855 9.30312 15.4787 10.8187 18.8857 13.9052L20.8756 15.7042L19.7913 17.0411C14.7456 23.2389 9.42883 32.0242 7.42657 37.458C6.33611 40.409 5.89869 43.3785 6.36691 44.6107C6.68111 45.4424 6.39156 45.1344 5.3319 43.5079ZM50.6754 44.1794C50.928 42.935 50.6077 40.6431 49.8499 38.3328C48.2173 33.3303 42.7403 24.0151 37.7131 17.688L36.1298 15.698L37.8425 14.1209C40.0788 12.0632 41.6314 10.831 43.3071 9.78983C44.6317 8.96428 46.5169 8.2373 47.3301 8.2373C47.8291 8.2373 49.5911 10.0671 51.0143 12.0693C53.2198 15.162 54.8401 18.9201 55.6595 22.8261C56.1894 25.352 56.2325 30.7551 55.7458 33.2687C55.3453 35.3325 54.4951 38.0125 53.6696 39.8361C53.0473 41.1976 51.5071 43.8406 50.8295 44.7031C50.4845 45.1344 50.4845 45.1344 50.6754 44.1794ZM26.0938 7.28854C23.7712 6.10566 20.1918 4.8427 18.2141 4.49769C17.518 4.38064 16.3413 4.31287 15.5835 4.34983C13.9509 4.42992 14.0248 4.34983 16.6431 3.11151C18.8179 2.08266 20.6353 1.4789 23.0997 0.96139C25.872 0.376114 31.0779 0.369953 33.8071 0.949069C36.752 1.57131 40.2205 2.86508 42.1735 4.06644L42.7526 4.42376L41.4219 4.35599C38.7728 4.22046 34.9161 5.29244 30.7699 7.31318C29.5192 7.9231 28.4349 8.4098 28.3548 8.39132C28.2809 8.379 27.2582 7.87998 26.0938 7.28854Z" fill="#F2F3FF"/>
</svg>
